<?xml version="1.0" encoding="utf-8"?>
<!-- Generator: Adobe Illustrator 19.2.1, SVG Export Plug-In . SVG Version: 6.00 Build 0)  -->
<svg version="1.1" id="Layer_1" xmlns:sketch="http://www.bohemiancoding.com/sketch/ns"
	 xmlns="http://www.w3.org/2000/svg" xmlns:xlink="http://www.w3.org/1999/xlink" x="0px" y="0px" viewBox="0 0 486 198"
	 enable-background="new 0 0 486 198" xml:space="preserve">
<title>Slice 1</title>
<desc>Created with Sketch.</desc>
<g id="Page-1" sketch:type="MSPage">
	<path id="NHS-rev" sketch:type="MSShapeGroup" fill="#0072C6" d="M0,1h485.6v196.7H0V1z M13.7,178.3h39.9l22-109.5H76l33.1,109.5
		h52.6L195.2,20h-39.9l-22.2,109.8h-0.4L100.3,20H47.5L13.7,178.3L13.7,178.3z M178,178.3h42.4l14.1-67.8h50.1l-14.1,67.8h42.4
		L345.7,20h-42.4l-12.5,60.6h-50.1L253.2,20h-42.4L178,178.3L178,178.3z M467.4,24.3c-10.7-5-29-7-48.5-7
		c-34.7,0-70.5,12.3-70.5,53.1c0,44.7,61.4,35.1,61.4,60.6c0,16.3-20.6,18.8-33.8,18.8c-13.8,0-30.6-3.6-39-9.1l-10,32.2
		c13.8,4.3,32.6,8.2,49,8.2c36.7,0,77.3-11.3,77.3-55.1c0-48.1-61.4-39.7-61.4-62.1c0-12.7,13.6-15.2,30.4-15.2
		c15.6,0,26.7,3.4,34.9,7.3L467.4,24.3L467.4,24.3z"/>
</g>
</svg>
